<svg width="77" height="77" viewBox="0 0 77 77" fill="none" xmlns="http://www.w3.org/2000/svg">
<path opacity="0.3" d="M6.17844 19.9225L38.5874 1.21114L70.9964 19.9225L70.9964 57.3451L38.5874 76.0564L6.17844 57.3451L6.17844 19.9225Z" stroke="white"/>
<path d="M28.7876 18.7V36.3555C28.7876 41.4888 33.0626 45.6888 38.2876 45.6888H39.6334C44.8584 45.6888 49.1334 41.4888 49.1334 36.3555V18.7H28.7876Z" fill="#FFC32E"/>
<path d="M46.442 18.7V32.9333C46.442 38.0666 42.167 42.2666 36.942 42.2666H35.5962C33.3795 42.2666 31.242 41.4889 29.6587 40.1666C31.1629 43.3555 34.4879 45.6111 38.2879 45.6111H39.6337C44.8587 45.6111 49.1337 41.4111 49.1337 36.2777V18.6222H46.442V18.7Z" fill="#FFA300"/>
<path d="M40.4253 45.2222C40.5045 45.2999 37.4962 45.2999 37.4962 45.2222C37.4962 45.2222 38.2087 51.6777 31.4795 54.5555H46.442C39.7128 51.7555 40.4253 45.2222 40.4253 45.2222Z" fill="#FFA300"/>
<path d="M41.217 47.0889H36.7836C36.1503 47.0889 35.6753 46.6223 35.6753 46V45.9223C35.6753 45.3 36.1503 44.8334 36.7836 44.8334H41.217C41.8503 44.8334 42.3253 45.3 42.3253 45.9223V46C42.3253 46.5445 41.7711 47.0889 41.217 47.0889Z" fill="#FFA300"/>
<path d="M45.8086 59.3778H32.1919C31.7961 59.3778 31.5586 59.0667 31.5586 58.7555V54.1667C31.5586 53.7778 31.8753 53.5444 32.1919 53.5444H45.8086C46.2044 53.5444 46.4419 53.8555 46.4419 54.1667V58.7555C46.4419 59.0667 46.2044 59.3778 45.8086 59.3778Z" fill="#C1432F"/>
<rect x="33.9336" y="54.7111" width="10.1333" height="3.5" fill="#FFA300"/>
<path d="M40.7418 57.8222H38.2876L41.2168 55.1H43.5918L40.7418 57.8222Z" fill="#FFC32E"/>
<path d="M37.7335 57.8222H36.4668L39.3168 55.1H40.5835L37.7335 57.8222Z" fill="#FFC32E"/>
<path d="M31.2417 21.5778V37.1333C31.2417 38.0666 32.0334 38.9222 33.0625 38.9222C34.0125 38.9222 34.8834 38.1444 34.8834 37.1333V21.5778H31.2417Z" fill="#FFDE55"/>
<path d="M50.4793 37.0557C51.271 35.7334 52.4585 34.7223 53.5668 33.6334C55.3876 31.8446 56.8918 29.6668 57.446 27.1779C58.0001 24.689 57.3668 21.889 55.4668 20.2557C52.0626 17.3779 45.8876 20.1779 48.6585 24.7668C49.4501 26.0112 51.1918 26.789 52.5376 26.089C53.0918 25.7779 53.646 25.2334 53.4876 24.6112C53.4085 23.989 52.4585 23.6001 52.0626 24.0668C51.9043 24.2223 51.9043 24.3779 51.746 24.5334C51.4293 24.8446 50.9543 24.8446 50.5585 24.689C49.2126 24.1446 49.0543 22.1223 50.0043 21.1112C51.0335 20.1001 52.7751 20.1001 53.9626 20.8779C55.1501 21.6557 55.8626 23.0557 56.021 24.4557C56.4168 27.1779 55.1501 29.9001 53.3293 31.9223C52.4585 32.8557 51.5085 33.6334 50.6376 34.5668C49.7668 35.5001 48.9751 36.5112 48.5793 37.6779C48.1835 38.8446 48.2626 40.2446 48.9751 41.2557C49.6876 42.2668 51.1126 42.8112 52.3001 42.3446C53.4876 41.8001 53.9626 40.1668 53.171 39.2334C52.9335 38.9223 52.4585 38.689 52.0626 38.7668C51.6668 38.8446 51.3501 39.3112 51.5876 39.7001C51.6668 40.4001 50.5585 40.6334 50.0835 40.089C49.6085 39.6223 49.6876 38.8446 49.9251 38.2223C50.0835 37.7557 50.2418 37.3668 50.4793 37.0557Z" fill="#FFA300"/>
<path d="M27.4419 37.0557C26.6502 35.7334 25.4627 34.7223 24.3544 33.6334C22.5335 31.8446 21.0294 29.6668 20.4752 27.1779C19.921 24.689 20.5544 21.889 22.4544 20.2557C25.8585 17.3779 32.0335 20.1779 29.2627 24.7668C28.471 26.0112 26.7294 26.789 25.3835 26.089C24.8294 25.7779 24.2752 25.2334 24.4335 24.6112C24.5127 23.989 25.4627 23.6001 25.8585 24.0668C26.0169 24.2223 26.0169 24.3779 26.1752 24.5334C26.4919 24.8446 26.9669 24.8446 27.3627 24.689C28.7085 24.1446 28.8669 22.1223 27.9169 21.1112C26.8877 20.1001 25.146 20.1001 23.9585 20.8779C22.771 21.6557 22.0585 23.0557 21.9002 24.4557C21.5044 27.1779 22.771 29.9001 24.5919 31.9223C25.4627 32.8557 26.4127 33.6334 27.2835 34.5668C28.1544 35.5001 28.946 36.5112 29.3419 37.6779C29.7377 38.8446 29.6585 40.2446 28.946 41.2557C28.2335 42.2668 26.8085 42.8112 25.621 42.3446C24.4335 41.8001 23.9585 40.1668 24.7502 39.2334C24.9877 38.9223 25.4627 38.689 25.8585 38.7668C26.2544 38.8446 26.571 39.3112 26.3335 39.7001C26.2544 40.4001 27.3627 40.6334 27.8377 40.089C28.3127 39.6223 28.2335 38.8446 27.996 38.2223C27.9169 37.7557 27.6794 37.3668 27.4419 37.0557Z" fill="#FFA300"/>
<path d="M35.0416 23.9889C34.4083 22.3556 34.8041 22.7445 33.1416 22.1223C34.8041 21.5001 34.4083 21.8889 35.0416 20.2556C35.6749 21.8889 35.2791 21.5001 36.9416 22.1223C35.2791 22.7445 35.6749 22.3556 35.0416 23.9889Z" fill="white"/>
<ellipse cx="45.5709" cy="40.7889" rx="1.34583" ry="1.32222" fill="white"/>
<path d="M43.0375 43.5111C42.7208 42.6556 42.9583 42.8111 42.0083 42.5C42.8791 42.1889 42.7208 42.4222 43.0375 41.4889C43.3541 42.3444 43.1166 42.1889 44.0666 42.5C43.1958 42.8111 43.4333 42.6556 43.0375 43.5111Z" fill="white"/>
</svg>
