<svg width="77" height="77" viewBox="0 0 77 77" fill="none" xmlns="http://www.w3.org/2000/svg">
<path opacity="0.3" d="M6.17844 19.9225L38.5874 1.21114L70.9964 19.9225L70.9964 57.3451L38.5874 76.0564L6.17844 57.3451L6.17844 19.9225Z" stroke="white"/>
<path fill-rule="evenodd" clip-rule="evenodd" d="M36.0552 43.3505C34.347 42.7559 32.7953 42.1518 31.3983 41.5368C30.0012 40.9225 28.7978 40.1792 27.7891 39.3066C26.7794 38.435 25.9935 37.3944 25.4315 36.1846C24.8683 34.9757 24.5874 33.4992 24.5874 31.7541C24.5874 28.385 25.858 25.6886 28.4003 23.6667C30.9416 21.6447 34.5025 20.6338 39.0823 20.6338C40.7504 20.6338 42.3031 20.7527 43.7393 20.9906C45.1745 21.2285 46.4069 21.5955 47.4358 22.0908C48.4635 22.587 49.2695 23.2206 49.8514 23.9937C50.4335 24.7668 50.7249 25.669 50.7249 26.6995C50.7249 27.7308 50.4919 28.6127 50.0262 29.3458C49.5605 30.0798 48.9974 30.7044 48.3381 31.2191C47.484 30.6643 46.3388 30.1784 44.9035 29.7621C43.4674 29.3458 41.8955 29.1377 40.1883 29.1377C38.4419 29.1377 37.1613 29.3857 36.3463 29.8811C35.5313 30.3771 35.1238 31.0016 35.1238 31.7541C35.1238 32.349 35.3758 32.8349 35.8806 33.2111C36.3844 33.5884 37.1412 33.935 38.1509 34.2518L41.2361 35.2629C44.8834 36.4523 47.6876 37.9685 49.6478 39.8122C51.6071 41.6557 52.5874 44.1635 52.5874 47.3349C52.5874 50.705 51.2868 53.4303 48.6873 55.5116C46.0869 57.5931 42.2639 58.6338 37.2195 58.6338C35.4339 58.6338 33.775 58.4851 32.2423 58.1878C30.7087 57.8903 29.3698 57.4546 28.2257 56.8795C27.0804 56.3053 26.1882 55.5915 25.5479 54.7386C24.9076 53.8865 24.5874 52.9053 24.5874 51.7948C24.5874 50.6455 24.9166 49.6643 25.577 48.8513C26.2365 48.0391 26.954 47.4149 27.7309 46.9779C28.8168 47.8505 30.1467 48.6041 31.7184 49.2377C33.2902 49.8724 35.0074 50.1893 36.8702 50.1893C38.7711 50.1893 40.11 49.892 40.8869 49.2972C41.6626 48.7026 42.0511 48.0095 42.0511 47.2159C42.0511 46.4233 41.74 45.8185 41.1197 45.402C40.4984 44.9859 39.6253 44.5798 38.5002 44.1829L36.0552 43.3505Z" fill="url(#paint0_linear)" stroke="white" stroke-width="0.5"/>
<path fill-rule="evenodd" clip-rule="evenodd" d="M40 58.7752L41.2388 58.6338L42.0488 58.5144L43 58.3077V64.9999H40V58.7752Z" fill="#02B543"/>
<path fill-rule="evenodd" clip-rule="evenodd" d="M40 42H43V45.0459V45.9581C43 45.9581 43 46.1715 43 46.7342C43 47.297 42.0807 47.6807 41.425 48.414C41.1988 48.667 41.1857 48.7392 40.866 49.0158C40.5464 49.2924 40 49.4882 40 49.4882V42Z" fill="#02B543"/>
<path fill-rule="evenodd" clip-rule="evenodd" d="M40 42.7665H43V37.276V35.6315V29.6148C43 29.6148 42.8095 29.5524 42.3476 29.504C41.8391 29.4508 41.2584 29.4115 40.9438 29.3983C40.0646 29.3614 40 29.3983 40 29.3983V42.7665Z" fill="#02B543"/>
<path fill-rule="evenodd" clip-rule="evenodd" d="M40 20.3886C40 20.3886 40.1227 20.1825 41.0116 20.4285C41.2119 20.4839 41.6129 20.4839 42.0442 20.5181C42.4755 20.5523 43 20.6338 43 20.6338V13.5129H40V20.3886Z" fill="#02B543"/>
<path fill-rule="evenodd" clip-rule="evenodd" d="M36 58.8472C36 58.8472 36.5394 58.8846 37.0732 58.8886C37.607 58.8926 38.0736 58.8895 38.4647 58.8683C38.8558 58.8472 39 58.8472 39 58.8472V64.9999H36V58.8472Z" fill="#02B543"/>
<path fill-rule="evenodd" clip-rule="evenodd" d="M35.9999 42H38.9999C38.9999 42 38.9999 44.5897 38.9999 45.0459C38.9999 45.502 38.9999 49.7665 38.9999 49.7665C38.9999 49.7665 38.3929 49.9338 38.0129 49.9338C37.6328 49.9338 37.6957 49.9338 36.9902 49.9338C35.9806 49.9338 35.9999 49.9118 35.9999 49.9118V42Z" fill="#02B543"/>
<path fill-rule="evenodd" clip-rule="evenodd" d="M36 42.7665H39V37.276V35.6315V29.4389C39 29.4389 38.7935 29.426 38.0075 29.5668C37.2215 29.7076 37.3539 29.7206 36.9046 29.8826C36.4552 30.0447 36 30.4273 36 30.4273V42.7665Z" fill="#02B543"/>
<path fill-rule="evenodd" clip-rule="evenodd" d="M36 20.5649C36 20.5649 36.0428 20.5649 37.0061 20.441C37.3289 20.3995 37.5829 20.3886 37.9969 20.3886C38.3149 20.3886 39 20.3886 39 20.3886V13.513H36V20.5649Z" fill="#02B543"/>
<ellipse cx="45.1322" cy="25.1328" rx="2.13215" ry="2.23583" fill="white"/>
<ellipse cx="45.4816" cy="25" rx="0.5" ry="1" transform="rotate(23 45.4816 25)" fill="#F7810D"/>
<defs>
<linearGradient id="paint0_linear" x1="31.4278" y1="24.2883" x2="23.5637" y2="54.756" gradientUnits="userSpaceOnUse">
<stop stop-color="#1A1093"/>
<stop offset="1" stop-color="#00A4FE"/>
</linearGradient>
</defs>
</svg>
