<svg width="77" height="77" viewBox="0 0 77 77" fill="none" xmlns="http://www.w3.org/2000/svg">
<path opacity="0.3" d="M6.17844 19.9225L38.5874 1.21114L70.9964 19.9225L70.9964 57.3451L38.5874 76.0564L6.17844 57.3451L6.17844 19.9225Z" stroke="white"/>
<path d="M51.6373 56.6215C48.1765 56.7927 46.5331 55.133 35.455 54.5188C31.7423 54.312 26.848 52.3039 23.5072 50.1598C17.1734 46.0903 14.1565 40.0717 16.2437 35.2875C17.1314 33.2497 18.6309 31.023 19.7405 29.0621C22.7454 23.7581 35.389 27.8572 40.979 34.4901C46.5691 41.123 52.0452 43.2907 56.6635 46.8581C58.7808 48.4942 61.9897 47.7382 61.5458 48.9372C61.114 50.1008 60.1903 52.3452 59.9984 52.8473C59.1287 55.1449 55.272 56.4443 51.6373 56.6215Z" fill="#C4394D"/>
<path opacity="0.2" d="M27.2712 46.6393C35.2775 49.617 19.9577 31.6338 19.9577 31.6338C19.9577 31.6338 17.7903 34.0733 15.5874 39.7654C15.9013 41.4795 16.7066 43.217 17.9325 44.8608C18.9332 42.357 20.2124 39.742 21.6869 38.0981C25.2578 34.1142 22.9246 39.157 22.9246 39.157C22.9246 39.157 20.4729 42.0528 18.8207 45.9607C19.3241 46.534 19.8867 47.0956 20.4966 47.6338C21.3138 45.6916 24.1504 45.4751 27.2712 46.6393Z" fill="white"/>
<path opacity="0.2" d="M51.524 56.6221C53.6054 56.5205 55.7528 56.0424 57.3783 55.2237C59.3458 51.8175 60.5874 49.0388 60.5874 49.0388C60.5874 49.0388 50.3243 47.2998 47.2772 51.0287C45.5737 53.1083 42.2206 54.2377 39.5874 54.8234C46.9293 55.5584 48.5608 56.7655 51.524 56.6221Z" fill="black"/>
<path d="M52.8271 51.6332C47.6125 51.6449 36.4893 51.5566 25.0704 45.1259C13.6514 38.6953 17.0493 28.2307 23.6943 23.7434C30.3393 19.2561 38.5051 22.3301 43.6292 29.1671C48.7592 36.0041 54.0523 38.4185 58.4038 42.1697C65.7549 48.5121 58.8806 51.6214 52.8271 51.6332Z" fill="#FFBAC3"/>
<path d="M52.1142 51.6331C47.0825 51.6692 37.0669 50.3551 26.088 43.9589C15.1092 37.5628 17.7178 28.3213 24.1495 23.788C30.5813 19.2546 38.5746 22.2447 43.1516 29.316C48.9432 38.2561 53.3587 38.3646 57.5408 42.1143C64.6008 48.438 57.9537 51.5909 52.1142 51.6331Z" fill="#DC4056"/>
<ellipse cx="48.8492" cy="43.1118" rx="2.14703" ry="3.73389" transform="rotate(-63.5503 48.8492 43.1118)" fill="#FFF7E3"/>
<ellipse cx="48.849" cy="43.1116" rx="1.79821" ry="3.12953" transform="rotate(-63.5503 48.849 43.1116)" fill="#70212C"/>
<path d="M49.0054 43.0654C50.1412 43.3949 51.0722 43.9814 51.5874 44.6338C51.4136 43.7837 50.6005 42.8282 49.4337 42.2088C47.8261 41.3587 46.1565 41.4641 45.7034 42.4394C45.5917 42.6832 45.5607 42.96 45.6103 43.2499C46.3241 42.7689 47.6275 42.6701 49.0054 43.0654Z" fill="#962C3B"/>
<path opacity="0.2" d="M58.1884 47.5768C59.0403 46.7607 57.7738 44.4344 58.1827 44.6475C59.5117 45.3539 60.3239 46.9799 58.6314 48.8495C57.7624 49.8057 56.0187 51.0845 54.8715 50.4755C53.5424 49.763 57.2569 48.4659 58.1884 47.5768Z" fill="white"/>
<path d="M23.5874 42.6338C24.3383 43.2 26.8062 44.3323 28.3686 43.9831C29.9311 43.6338 31.5874 43.745 31.5874 43.745C31.5874 43.745 29.6274 43.7873 28.606 44.2423C27.9049 44.5545 27.3196 45.0096 28.1202 45.4117C28.9207 45.8139 27.1374 45.7557 25.3817 44.5122C23.626 43.2687 23.5874 42.6338 23.5874 42.6338Z" fill="#FFBAC3"/>
<path d="M37.5874 23.6338C37.5874 23.6338 39.847 25.762 40.1425 26.8792C40.4379 27.9964 41.9152 29.9187 42.3912 31.1981C42.8672 32.4775 42.3693 30.5989 42.0356 29.9124C41.7018 29.2259 41.0343 28.6579 40.8921 27.7592C40.7498 26.8605 40.5747 26.7981 40.8045 26.7232C41.0343 26.6483 38.5613 24.0207 37.5874 23.6338Z" fill="#FFBAC3"/>
<path d="M19.6037 30.6338C19.869 29.983 20.8027 29.3844 21.4768 29.3179C22.1564 29.2514 22.5874 28.8476 22.5874 28.8476C22.5874 28.8476 22.1564 29.1421 21.6205 29.0471C21.079 28.9521 20.4049 29.0708 20.648 28.6338C20.648 28.6338 20.2005 28.8808 19.8469 29.5079C19.4932 30.135 19.6037 30.6338 19.6037 30.6338Z" fill="#FFBAC3"/>
</svg>
