<?xml version="1.0" encoding="UTF-8"?>
<svg id="SVGDoc" width="199" height="226" xmlns="http://www.w3.org/2000/svg" version="1.1" xmlns:xlink="http://www.w3.org/1999/xlink" xmlns:avocode="https://avocode.com/" viewBox="0 0 199 226"><defs><clipPath id="ClipPath1041"><path d="M89.59,6.4035c6.18802,-3.57266 13.81198,-3.57266 20,0l78.7269,45.453c6.18802,3.57266 10,10.1752 10,17.32051v90.90599c0,7.14531 -3.81198,13.74785 -10,17.32051l-78.7269,45.453c-6.18802,3.57266 -13.81198,3.57266 -20,0l-78.7269,-45.453c-6.18802,-3.57266 -10,-10.1752 -10,-17.32051v-90.90599c0,-7.14531 3.81198,-13.74785 10,-17.32051z" fill="#ffffff"></path></clipPath></defs><desc>Generated with Avocode.</desc><g><g transform="rotate(-360 99.5 113)" opacity="0.1"><title>Polygon</title><path d="M89.59,6.4035c6.18802,-3.57266 13.81198,-3.57266 20,0l78.7269,45.453c6.18802,3.57266 10,10.1752 10,17.32051v90.90599c0,7.14531 -3.81198,13.74785 -10,17.32051l-78.7269,45.453c-6.18802,3.57266 -13.81198,3.57266 -20,0l-78.7269,-45.453c-6.18802,-3.57266 -10,-10.1752 -10,-17.32051v-90.90599c0,-7.14531 3.81198,-13.74785 10,-17.32051z" fill-opacity="0" fill="#ffffff" stroke-linejoin="miter" stroke-linecap="butt" stroke-opacity="1" stroke="#ffffff" stroke-miterlimit="20" stroke-width="2" clip-path="url(&quot;#ClipPath1041&quot;)"></path></g></g></svg>