<?xml version="1.0" encoding="UTF-8"?>
<svg id="SVGDoc" width="148" height="168" xmlns="http://www.w3.org/2000/svg" version="1.1" xmlns:xlink="http://www.w3.org/1999/xlink" xmlns:avocode="https://avocode.com/" viewBox="0 0 148 168"><defs><clipPath id="ClipPath1030"><path d="M63.59,6.4035c6.18802,-3.57266 13.81198,-3.57266 20,0l53.61216,30.95299c6.18802,3.57266 10,10.1752 10,17.32051v61.90599c0,7.14531 -3.81198,13.74785 -10,17.32051l-53.61216,30.95299c-6.18802,3.57266 -13.81198,3.57266 -20,0l-53.61216,-30.95299c-6.18802,-3.57266 -10,-10.1752 -10,-17.32051v-61.90599c0,-7.14531 3.81198,-13.74785 10,-17.32051z" fill="#ffffff"></path></clipPath></defs><desc>Generated with Avocode.</desc><g><g transform="rotate(-360 74 84)" opacity="0.2"><title>Polygon</title><path d="M63.59,6.4035c6.18802,-3.57266 13.81198,-3.57266 20,0l53.61216,30.95299c6.18802,3.57266 10,10.1752 10,17.32051v61.90599c0,7.14531 -3.81198,13.74785 -10,17.32051l-53.61216,30.95299c-6.18802,3.57266 -13.81198,3.57266 -20,0l-53.61216,-30.95299c-6.18802,-3.57266 -10,-10.1752 -10,-17.32051v-61.90599c0,-7.14531 3.81198,-13.74785 10,-17.32051z" fill-opacity="0" fill="#ffffff" stroke-linejoin="miter" stroke-linecap="butt" stroke-opacity="1" stroke="#f7810d" stroke-miterlimit="20" stroke-width="2" clip-path="url(&quot;#ClipPath1030&quot;)"></path></g></g></svg>