<?xml version="1.0" encoding="UTF-8"?>
<svg id="SVGDoc" width="111" height="126" xmlns="http://www.w3.org/2000/svg" version="1.1" xmlns:xlink="http://www.w3.org/1999/xlink" xmlns:avocode="https://avocode.com/" viewBox="0 0 111 126"><defs></defs><desc>Generated with Avocode.</desc><g><g transform="rotate(-360 55.5 63)"><title>Polygon</title><path d="M45.59,6.4035c6.18802,-3.57266 13.81198,-3.57266 20,0l35.42563,20.453c6.18802,3.57266 10,10.1752 10,17.32051v40.90599c0,7.14531 -3.81198,13.74785 -10,17.32051l-35.42563,20.453c-6.18802,3.57266 -13.81198,3.57266 -20,0l-35.42563,-20.453c-6.18802,-3.57266 -10,-10.1752 -10,-17.32051v-40.90599c0,-7.14531 3.81198,-13.74785 10,-17.32051z" fill="#ffffff" fill-opacity="1"></path></g><g transform="rotate(-270 56 65)"><title>Triangle</title><path d="M56,58v0l10,14v0h-20v0z" fill="#f7810d" fill-opacity="1"></path></g></g></svg>